<?xml version="1.0" encoding="utf-8"?>
<!-- Generator: Adobe Illustrator 23.0.2, SVG Export Plug-In . SVG Version: 6.00 Build 0)  -->
<svg version="1.1" id="Layer_1" xmlns="http://www.w3.org/2000/svg" xmlns:xlink="http://www.w3.org/1999/xlink" x="0px" y="0px"
	 viewBox="0 0 86 31" style="enable-background:new 0 0 86 31;" xml:space="preserve">
<style type="text/css">
	.st0{fill:#FFFFFF;}
</style>
<path class="st0" d="M48.6,0.2c-2.5,0.6-3.7,1.9-3.7,3.9c0,2.4,1.3,3.5,5.6,4.6c2.1,0.5,2.8,1.5,1.8,2.4c-1.1,1-3.3,0.4-3.6-1.1
	c-0.1-0.7-0.1-0.7-2.4-0.6l-2,0.1l0.1,0.6c0.2,1,1,2.5,1.7,3.1c2.1,1.8,7.7,1.6,9.6-0.3l0.6-0.6l0.1,0.6c0.4,2.4,2.8,4.6,5.6,5.1
	l0.9,0.2l-0.5,0.7c-1.7,2.3-1.8,6.9-0.1,9.3c2.6,3.7,9.8,3.6,12.2-0.2l0.4-0.7v3.3H86V27h-6.7V16.8h-4.5v1.6c0,1.3,0,1.5-0.2,1.3
	c-0.9-1.4-2.5-2.6-4.2-2.9l-0.9-0.2l0.9-0.7c2.8-2.1,4.5-5.9,4.1-9c-1.2-8-12.7-8.2-17.1-0.2c-0.3,0.5-0.5,0.9-0.5,1
	S56.4,7.4,56,6.9c-1-1-1.8-1.3-4.4-2c-2.5-0.6-3-1.1-2.2-1.8s2.5-0.3,2.9,0.8c0.2,0.6,0.2,0.6,2.8,0.5l1.5-0.1l-0.1-0.6
	C56.1,0.9,52.5-0.7,48.6,0.2L48.6,0.2z M1,7.3v7h4.5V8.7H6c0.7,0,1.2,0.5,2.6,3.1l1.3,2.4h2.5c1.4,0,2.5,0,2.5,0
	c0-0.8-2.8-5.3-3.6-5.8l-0.4-0.3l0.9-0.5c3.2-1.7,2.6-6.5-0.9-7.2c-0.4-0.1-2.7-0.2-5.3-0.2H1V7.3L1,7.3z M69.2,1.5
	c7,1.8,6.4,11.7-1,15.3c-7.5,3.7-14.2-2.4-10.7-9.6C59.6,3.1,65,0.4,69.2,1.5L69.2,1.5z M8.6,3.5c1.6,0.8,0.5,2.3-1.7,2.4L5.5,6V3.3
	h1.4C7.6,3.3,8.4,3.4,8.6,3.5L8.6,3.5z M66.7,4.7c-1.2,0.3-2.5,1.6-2.5,2.5c0,1.5,1.2,2,3,1.4c1.1-0.4,1.4-0.4,1.6,0
	c0.4,0.7-0.8,1.3-1.5,0.9c-0.3-0.2-1.6,0.5-1.6,1c0,0.7,1.7,0.9,2.8,0.4c3.3-1.7,2.4-5.2-1.1-4C66,7.4,65.7,7.4,65.7,7
	c0-0.6,0.9-1,1.4-0.6c0.2,0.2,1.4-0.7,1.4-1C68.6,4.9,67.5,4.5,66.7,4.7L66.7,4.7z M61.7,8.1c-0.7,0.5-0.8,0.4,0.6,2.3
	c0.8,1.2,1.2,1.8,1.1,2.1c-0.1,0.5-0.6,0.6-1,0.2c-0.2-0.2-0.3-0.2-0.9,0.3c-1.4,1.2,0.7,2.3,2.3,1.1c1.8-1.2,1.8-2,0-4.6
	C62.6,7.5,62.5,7.5,61.7,8.1L61.7,8.1z M4.7,16.6c-2.5,0.4-4,1.9-4.1,4c0,2.2,1.4,3.5,4.9,4.3c2.2,0.5,2.9,1,2.9,1.7
	c0,2-3.6,1.8-4-0.2c-0.1-0.7-0.1-0.7-2.4-0.6L0,26l0.1,0.6c0.5,2.9,2.2,4.1,5.9,4.3c3,0.1,4-0.2,5.3-1.5l0.9-0.9l0.3,0.4
	c1.9,2.6,8.3,2.8,10.5,0.3c0.6-0.7,1.3-2.1,1.4-2.7c0-0.4,0-0.4-1.8-1l-1.9-0.6l-0.3,0.8c-0.9,2.6-4.1,2.6-4.9,0
	c-0.2-0.9-0.2-3,0.1-3.9c0.7-2.2,3.4-2.6,4.5-0.7c0.5,0.8,0.3,0.8,2.5,0.3c2-0.5,1.9-0.4,1.5-1.4c-1.8-3.9-8-4.8-11.2-1.7L12,19.2
	l-0.4-0.6C10.7,17,7.7,16.2,4.7,16.6L4.7,16.6z M47.6,16.6c-1.7,0.3-3.4,1.4-4.4,2.8c-0.3,0.4-0.3,0.3-0.3-1.1v-1.5h-4.5v4.8h-4.5
	v-4.8h-4.5v14h4.5v-5.6h4.5v5.6h4.5v-3.2l0.5,0.7c2,3.1,8.3,3.6,11.1,1c3.3-3.1,2.7-10-1.1-11.9C52,16.6,49.5,16.3,47.6,16.6
	L47.6,16.6z M7.2,19.5c0.3,0.1,0.6,0.5,0.7,0.9L8.2,21l3-0.1l-0.1,0.8c-0.1,1-0.2,1.1-1.1,0.7c-0.4-0.2-1.6-0.5-2.6-0.8
	C5,21,4.8,20.9,4.6,20.4C4.5,19.5,6.1,18.9,7.2,19.5L7.2,19.5z M50.3,20.1c2.3,0.6,2.8,5.9,0.6,7.2c-1.6,0.9-3.6,0.1-4.1-1.6
	C45.9,22.1,47.6,19.3,50.3,20.1z M69.1,20.1c2.7,0.7,2.6,6.8-0.1,7.5c-2.2,0.6-3.6-0.9-3.6-3.7C65.4,20.9,66.8,19.4,69.1,20.1
	L69.1,20.1z"/>
</svg>
