<?xml version="1.0" encoding="utf-8"?>
<!-- Generator: Adobe Illustrator 23.0.2, SVG Export Plug-In . SVG Version: 6.00 Build 0)  -->
<svg version="1.1" id="Layer_1" xmlns="http://www.w3.org/2000/svg" xmlns:xlink="http://www.w3.org/1999/xlink" x="0px" y="0px"
	 width="44px" height="44px" viewBox="0 0 44 44" style="enable-background:new 0 0 44 44;" xml:space="preserve">
<style type="text/css">
	.st0{fill:#FFD86F;}
	.st1{fill:#0099AE;}
	.st2{fill:#00BF82;}
</style>
<g>
	<path class="st0" d="M16,9.1h23.8c1.8,0,3.3,1.5,3.3,3.3v27.4c0,1.8-1.5,3.3-3.3,3.3H24.1L16,9.1z"/>
	<polygon class="st1" points="31,34.9 24.1,43.1 21.4,34.9 	"/>
	<path class="st2" d="M31,34.9H4.2c-1.8,0-3.3-1.5-3.3-3.3V4.2c0-1.8,1.5-3.3,3.3-3.3h15.7L31,34.9z"/>
	<path d="M39.8,8.2H23.2l-2.5-7.6C20.6,0.2,20.3,0,19.9,0H4.2C1.9,0,0,1.9,0,4.2v27.4c0,2.3,1.9,4.2,4.2,4.2h16.5l2.5,7.6
		c0.1,0.4,0.5,0.6,0.9,0.6h15.7c2.3,0,4.2-1.9,4.2-4.2V12.4C44,10.1,42.1,8.2,39.8,8.2z M1.8,31.6V4.2c0-1.3,1.1-2.4,2.4-2.4h15
		L29.8,34H4.2C2.9,34,1.8,32.9,1.8,31.6z M35.4,20.7c-0.5,1-1.3,2.6-2.7,4.4c-0.4-0.5-0.7-1-1-1.4c-0.8-1.2-1.3-2.2-1.6-3H35.4
		L35.4,20.7z M28.1,20.7c0.3,0.8,1,2.2,2.1,3.9c0.4,0.6,0.8,1.2,1.4,1.9c-0.5,0.6-1.1,1.2-1.7,1.7l-2.5-7.5H28.1L28.1,20.7z
		 M22.6,35.8h6.5l-4.6,5.5L22.6,35.8z M42.2,39.8c0,1.3-1.1,2.4-2.4,2.4H26l5.7-6.7c0.1-0.2,0.2-0.4,0.2-0.6c0-0.1,0-0.2-0.1-0.3
		l-1.4-4.4c0.8-0.7,1.6-1.5,2.3-2.2c1.5,1.7,3.5,3.4,6,5c0.1,0,0.3,0,0.5,0c0.3,0,0.6-0.2,0.8-0.4c0.3-0.4,0.1-1-0.3-1.2
		c-2.4-1.5-4.3-3.2-5.8-4.8c2-2.5,3-4.8,3.5-5.8H40c0.5,0,0.9-0.4,0.9-0.9S40.5,19,40,19h-6.4v-1.5c0-0.5-0.4-0.9-0.9-0.9
		s-0.9,0.4-0.9,0.9V19h-5l-2.9-9h16c1.3,0,2.4,1.1,2.4,2.4L42.2,39.8L42.2,39.8L42.2,39.8z"/>
	<path d="M12.6,24.6c3.6,0,6.6-3,6.6-6.6c0-0.5-0.4-0.9-0.9-0.9h-5.1c-0.5,0-0.9,0.4-0.9,0.9s0.4,0.9,0.9,0.9h4.1
		c-0.4,2.2-2.4,3.9-4.7,3.9c-2.7,0-4.8-2.2-4.8-4.8s2.2-4.8,4.8-4.8c1.1,0,2.3,0.4,3.1,1.1c0.4,0.3,0.9,0.3,1.3-0.1
		c0.3-0.4,0.3-0.9-0.1-1.3c-1.2-1-2.7-1.6-4.3-1.6C9,11.4,6,14.4,6,18S9,24.6,12.6,24.6z"/>
	<path d="M17.3,30.2h-0.4c-0.5,0-0.9,0.4-0.9,0.9s0.4,0.9,0.9,0.9h0.4c0.5,0,0.9-0.4,0.9-0.9S17.8,30.2,17.3,30.2z"/>
	<path d="M14,30.2H5.3c-0.5,0-0.9,0.4-0.9,0.9S4.8,32,5.3,32H14c0.5,0,0.9-0.4,0.9-0.9S14.5,30.2,14,30.2z"/>
</g>
</svg>
